<svg height="32" viewBox="0 0 375 32" width="375" xmlns="http://www.w3.org/2000/svg" xmlns:xlink="http://www.w3.org/1999/xlink"><defs><path id="a" d="m0 0h375v32h-375z"/><mask id="b" fill="#fff"><use fill="#fff" fill-rule="evenodd" xlink:href="#a"/></mask></defs><g fill="none" fill-rule="evenodd"><use fill="#fafafb" xlink:href="#a"/><g stroke="#f2f4f7" stroke-width="4"><path d="m-133 2c21.333333 11.3333333 42.6666667 17 64 17 32 0 32-17 64-17s32 17 64 17 32-17 64-17 32 17 64 17 32-17 64-17 32 17 64 17 32-17 64-17 32 17 64 17c21.333333 0 42.666667-5.6666667 64-17" mask="url(#b)"/><path d="m-133 10c21.333333 11.3333333 42.6666667 17 64 17 32 0 32-17 64-17s32 17 64 17 32-17 64-17 32 17 64 17 32-17 64-17 32 17 64 17 32-17 64-17 32 17 64 17c21.333333 0 42.666667-5.6666667 64-17" mask="url(#b)"/><path d="m-133 18c21.333333 11.3333333 42.6666667 17 64 17 32 0 32-17 64-17s32 17 64 17 32-17 64-17 32 17 64 17 32-17 64-17 32 17 64 17 32-17 64-17 32 17 64 17c21.333333 0 42.666667-5.6666667 64-17" mask="url(#b)"/><path d="m-133 26c21.333333 11.3333333 42.6666667 17 64 17 32 0 32-17 64-17s32 17 64 17 32-17 64-17 32 17 64 17 32-17 64-17 32 17 64 17 32-17 64-17 32 17 64 17c21.333333 0 42.666667-5.6666667 64-17" mask="url(#b)"/><path d="m-133-6c21.333333 11.33333333 42.6666667 17 64 17 32 0 32-17 64-17s32 17 64 17 32-17 64-17 32 17 64 17 32-17 64-17 32 17 64 17 32-17 64-17 32 17 64 17c21.333333 0 42.666667-5.66666667 64-17" mask="url(#b)"/><path d="m-133-14c21.333333 11.33333333 42.6666667 17 64 17 32 0 32-17 64-17s32 17 64 17 32-17 64-17 32 17 64 17 32-17 64-17 32 17 64 17 32-17 64-17 32 17 64 17c21.333333 0 42.666667-5.66666667 64-17" mask="url(#b)"/></g></g></svg>